<svg width="25" height="18" viewBox="0 0 25 18" fill="none" xmlns="http://www.w3.org/2000/svg">
<path d="M24.53 5.94234C24.72 5.79834 25 5.93272 25 6.16312V15.7537C25 16.9921 23.95 18 22.66 18H2.33997C1.04997 18 0 16.9921 0 15.7537V6.17297C0 5.93297 0.279971 5.79859 0.469971 5.95219C1.56997 6.76819 3.02 7.80502 8 11.2706C9.03 12.0002 10.77 13.5166 12.5 13.507C14.24 13.5166 16.02 11.9714 17.01 11.2706C21.99 7.80502 23.43 6.75834 24.53 5.94234ZM12.5 12C13.63 12.0192 15.26 10.6272 16.08 10.0608C22.56 5.54878 23.06 5.15514 24.55 4.02234C24.83 3.81114 25 3.48482 25 3.13922V2.24625C25 1.00785 23.95 0 22.66 0H2.33997C1.04997 0 0 1.00785 0 2.24625V3.13922C0 3.48482 0.169951 3.81114 0.449951 4.02234C1.93995 5.14554 2.44004 5.54878 8.92004 10.0608C9.74004 10.6272 11.37 12.0192 12.5 12Z" fill="white"/>
</svg>
