<svg width="175" height="175" viewBox="0 0 175 175" fill="none" xmlns="http://www.w3.org/2000/svg">
<path d="M43.0664 50.333L52.3682 98.0869L62.0361 50.333H72.1802L59.436 109.11H45.9961L36.9141 59.2686L27.0996 109H14.2822L1.57471 50.333H11.7188L21.3501 98.0869L30.6519 50.333H43.0664ZM79.5776 109V50.333H90.0879V101.969H116.602V109H79.5776ZM133.374 72.7085C134.106 71.5366 134.875 70.499 135.681 69.5957C136.511 68.6924 137.402 67.9355 138.354 67.3252C139.331 66.7148 140.393 66.251 141.541 65.9336C142.688 65.6162 143.958 65.4575 145.349 65.4575C146.13 65.4575 146.912 65.4941 147.693 65.5674V73.9536C147.351 73.8071 146.814 73.7095 146.082 73.6606C145.349 73.5874 144.556 73.5508 143.701 73.5508C141.943 73.5508 140.222 73.9902 138.538 74.8691C136.877 75.7236 135.315 76.7856 133.85 78.0552V109H123.779V65.7139H132.056L133.374 72.7085Z" fill="#FFD280"/>
<rect y="121" width="175" height="8" fill="#FFD280"/>
<circle cx="159" cy="100" r="9" fill="#FFD280"/>
</svg>
