<svg width="130" height="105" viewBox="0 0 130 105" fill="none" xmlns="http://www.w3.org/2000/svg">
<path d="M56.652 104.896L44.263 101.266C42.963 100.904 42.231 99.5302 42.597 98.2161L70.321 1.77728C70.687 0.463212 72.048 -0.269232 73.348 0.0918862L85.737 3.72325C87.037 4.0944 87.769 5.46846 87.403 6.78253L59.679 103.221C59.293 104.535 57.952 105.288 56.652 104.896ZM33.498 81.8853L42.333 72.3758C43.267 71.3627 43.206 69.7677 42.171 68.8449L23.769 52.4944L42.171 36.1538C43.206 35.2309 43.288 33.6259 42.333 32.6228L33.498 23.1031C32.584 22.1201 31.04 22.0603 30.045 23.0032L0.777 50.6885C-0.259 51.6616 -0.259 53.3168 0.777 54.2798L30.045 81.996C31.04 82.9389 32.584 82.8884 33.498 81.8853ZM99.955 82.0156L129.223 54.2998C130.259 53.3368 130.259 51.6819 129.223 50.7189L99.955 22.9831C98.98 22.0602 97.437 22.1 96.502 23.083L87.667 32.6027C86.733 33.6059 86.794 35.2108 87.829 36.1337L106.231 52.4944L87.829 68.8449C86.794 69.7677 86.712 71.3627 87.667 72.3758L96.502 81.8853C97.416 82.8884 98.96 82.9384 99.955 82.0156Z" fill="white"/>
</svg>
