<svg width="50" height="50" viewBox="0 0 50 50" fill="none" xmlns="http://www.w3.org/2000/svg">
<path d="M25.0062 12.1752C17.9111 12.1752 12.1893 17.9025 12.1893 24.9998C12.1893 32.097 17.9111 37.815 25.0062 37.815C32.1003 37.815 37.8222 32.097 37.8222 24.9998C37.8222 17.9025 32.1003 12.1752 25.0062 12.1752ZM25.0062 33.3368C20.4208 33.3368 16.6728 29.5979 16.6728 24.9998C16.6728 20.4016 20.4098 16.6632 25.0062 16.6632C29.6017 16.6632 33.3387 20.4016 33.3387 24.9998C33.3387 29.5979 29.5907 33.3368 25.0062 33.3368ZM41.3363 11.6554C41.3363 13.3147 39.998 14.644 38.3469 14.644C36.6848 14.644 35.3576 13.3047 35.3576 11.6554C35.3576 10.006 36.6958 8.66634 38.3469 8.66634C39.998 8.66634 41.3363 10.006 41.3363 11.6554ZM49.8246 14.6942C49.6347 10.6858 48.7202 7.13723 45.7868 4.21838C42.8644 1.28953 39.3174 0.379851 35.3126 0.179929C31.1858 -0.0599764 18.8147 -0.0599764 14.6879 0.179929C10.6941 0.369855 7.14707 1.27952 4.21369 4.19837C1.28 7.12722 0.376493 10.6758 0.175703 14.6742C-0.0585678 18.8026 -0.0585678 31.1774 0.175703 35.3058C0.365299 39.3142 1.28 42.8628 4.21369 45.7816C7.14707 48.7005 10.6831 49.6201 14.6879 49.8201C18.8147 50.06 31.1858 50.06 35.3126 49.8201C39.3174 49.6301 42.8644 48.7205 45.7868 45.7816C48.7092 42.8628 49.6237 39.3142 49.8246 35.3058C50.0585 31.1774 50.0585 18.8226 49.8246 14.6942ZM44.4925 39.7342C43.623 41.9233 41.9379 43.6024 39.7411 44.4921C36.45 45.7916 28.6422 45.4917 25.0062 45.4917C21.3692 45.4917 13.5496 45.7816 10.2704 44.4921C8.08456 43.6224 6.39949 41.9333 5.51897 39.7342C4.21369 36.4455 4.51452 28.6383 4.51452 24.9998C4.51452 21.3612 4.22468 13.5445 5.51897 10.2658C6.38849 8.07667 8.07356 6.38708 10.2704 5.50742C13.5615 4.19794 21.3692 4.50782 25.0062 4.50782C28.6422 4.50782 36.4619 4.21793 39.7411 5.50742C41.9269 6.37708 43.612 8.06667 44.4925 10.2658C45.7978 13.5545 45.497 21.3612 45.497 24.9998C45.497 28.6383 45.7978 36.4555 44.4925 39.7342Z" fill="white"/>
</svg>
