<svg width="175" height="85" viewBox="0 0 175 85" fill="none" xmlns="http://www.w3.org/2000/svg">
<path d="M43.0664 5.33301L52.3682 53.0869L62.0361 5.33301H72.1802L59.436 64.1099H45.9961L36.9141 14.2686L27.0996 64H14.2822L1.57471 5.33301H11.7188L21.3501 53.0869L30.6519 5.33301H43.0664ZM79.5776 64V5.33301H90.0879V56.9688H116.602V64H79.5776ZM133.374 27.7085C134.106 26.5366 134.875 25.499 135.681 24.5957C136.511 23.6924 137.402 22.9355 138.354 22.3252C139.331 21.7148 140.393 21.251 141.541 20.9336C142.688 20.6162 143.958 20.4575 145.349 20.4575C146.13 20.4575 146.912 20.4941 147.693 20.5674V28.9536C147.351 28.8071 146.814 28.7095 146.082 28.6606C145.349 28.5874 144.556 28.5508 143.701 28.5508C141.943 28.5508 140.222 28.9902 138.538 29.8691C136.877 30.7236 135.315 31.7856 133.85 33.0552V64H123.779V20.7139H132.056L133.374 27.7085Z" fill="white"/>
<rect y="76" width="175" height="8" fill="white"/>
<circle cx="159" cy="55" r="9" fill="white"/>
</svg>
