<svg width="25" height="25" viewBox="0 0 25 25" fill="none" xmlns="http://www.w3.org/2000/svg">
<path d="M24.29 17.6698L18.8199 15.3197C18.5799 15.2197 18.32 15.1996 18.08 15.2596C17.83 15.3196 17.61 15.46 17.45 15.66L15.03 18.6199C11.23 16.8299 8.17 13.77 6.38 9.97005L9.33997 7.53987C9.52997 7.37987 9.66998 7.15975 9.72998 6.91975C9.78998 6.66975 9.77004 6.41001 9.67004 6.18001L7.32996 0.709791C7.21996 0.459791 7.03003 0.249713 6.78003 0.129713C6.53003 -0.000287324 6.24999 -0.030385 5.98999 0.029615L0.910034 1.20003C0.650034 1.26003 0.42 1.40969 0.25 1.60969C0.09 1.81969 0 2.07967 0 2.33967C0 14.8697 10.15 24.9998 22.66 24.9998C22.92 24.9998 23.18 24.9098 23.39 24.7498C23.59 24.5798 23.74 24.3497 23.8 24.0897L24.97 19.0096C25.03 18.7396 25 18.46 24.87 18.22C24.75 17.97 24.54 17.7798 24.29 17.6698Z" fill="white"/>
</svg>
