<svg width="51" height="50" viewBox="0 0 51 50" fill="none" xmlns="http://www.w3.org/2000/svg">
<path d="M25.0281 0C11.2171 0 0.0280762 11.19 0.0280762 25C0.0280762 38.81 11.2171 50 25.0281 50C38.8381 50 50.0281 38.81 50.0281 25C50.0281 11.19 38.8381 0 25.0281 0ZM37.3061 17.1299L33.2031 36.46C32.9011 37.83 32.0841 38.17 30.9451 37.52L24.6951 32.9102L21.6811 35.8198C21.3481 36.1498 21.0661 36.4302 20.4211 36.4302L20.8651 30.0698L32.4471 19.6099C32.9511 19.1599 32.3361 18.9101 31.6711 19.3501L17.3571 28.3701L11.1871 26.4399C9.84607 26.0199 9.81607 25.1 11.4691 24.46L35.5721 15.1602C36.6911 14.7602 37.6691 15.4299 37.3061 17.1299Z" fill="white"/>
</svg>
