<svg width="51" height="50" viewBox="0 0 51 50" fill="none" xmlns="http://www.w3.org/2000/svg">
<path d="M42.5391 7.27002C37.8631 2.58002 31.6351 0 25.0171 0C11.3561 0 0.240051 11.1198 0.240051 24.7798C0.240051 29.1398 1.37806 33.3999 3.54306 37.1699L0.0280762 50L13.1641 46.5498C16.7801 48.5298 20.8541 49.5601 25.0061 49.5601H25.0171C38.6661 49.5601 50.0281 38.45 50.0281 24.79C50.0281 18.17 47.2151 11.95 42.5391 7.27002ZM25.0171 45.3901C21.3111 45.3901 17.6841 44.4 14.5261 42.52L13.7781 42.0801L5.98807 44.1201L8.06406 36.52L7.57205 35.7402C5.50805 32.4602 4.42505 28.6698 4.42505 24.7798C4.42505 13.4298 13.6661 4.18994 25.0281 4.18994C30.5301 4.18994 35.6971 6.33021 39.5811 10.2202C43.4651 14.1202 45.854 19.29 45.843 24.79C45.843 36.15 36.3671 45.3901 25.0171 45.3901ZM36.3111 29.9702C35.6971 29.6502 32.6511 28.16 32.0811 27.96C31.5121 27.75 31.0991 27.65 30.6861 28.27C30.2731 28.9 29.09 30.2802 28.722 30.7002C28.365 31.1202 27.9971 31.1699 27.3831 30.8599C23.7441 29.0399 21.3561 27.6102 18.9561 23.4902C18.3201 22.4002 19.5931 22.4799 20.7761 20.1099C20.9761 19.6999 20.8761 19.3398 20.7201 19.0298C20.5641 18.7198 19.3251 15.6702 18.8111 14.4302C18.3091 13.2302 17.796 13.3901 17.416 13.3701C17.059 13.3501 16.6461 13.3501 16.2331 13.3501C15.8201 13.3501 15.1511 13.5001 14.5811 14.1201C14.0121 14.7401 12.416 16.24 12.416 19.29C12.416 22.33 14.6371 25.2799 14.9391 25.6899C15.2511 26.0999 19.3021 32.35 25.5191 35.04C29.4471 36.74 30.9881 36.8901 32.9521 36.6001C34.1461 36.4201 36.6131 35.0999 37.1261 33.6499C37.6391 32.1999 37.6391 30.9602 37.4831 30.7002C37.3381 30.4202 36.9251 30.2702 36.3111 29.9702Z" fill="white"/>
</svg>
